<svg class="change-theme__black" width="20" height="20" viewBox="0 0 20 20" fill="none" xmlns="http://www.w3.org/2000/svg">
<path d="M19.9616 12.5673C19.4839 14.2774 18.5667 15.8325 17.3015 17.078C16.0362 18.3236 14.4669 19.2161 12.7497 19.6669C11.0325 20.1176 9.2272 20.1108 7.51341 19.6472C5.79962 19.1836 4.23706 18.2794 2.98117 17.0244C1.72528 15.7694 0.819825 14.2074 0.354882 12.4938C-0.11006 10.7803 -0.11829 8.97479 0.331013 7.25704C0.780315 5.5393 1.67149 3.96913 2.91589 2.70274C4.16029 1.43635 5.71454 0.517869 7.42403 0.0386658C7.54928 -0.00166781 7.68252 -0.0106137 7.81204 0.0126145C7.94155 0.0358427 8.06338 0.0905337 8.16681 0.17188C8.27024 0.253227 8.35211 0.358738 8.40521 0.479139C8.45832 0.59954 8.48104 0.731144 8.47137 0.862383C8.4711 0.924642 8.4608 0.98645 8.44087 1.04543C8.03746 2.50163 8.0275 4.0388 8.41201 5.5001C8.79652 6.96141 9.56174 8.29456 10.6296 9.36355C11.6975 10.4326 13.0297 11.1991 14.4905 11.5851C15.9513 11.9711 17.4883 11.9626 18.9448 11.5605L19.1685 11.5199C19.3454 11.5185 19.5181 11.5741 19.6609 11.6785C19.8038 11.7829 19.9092 11.9305 19.9616 12.0995C20.0128 12.2513 20.0128 12.4156 19.9616 12.5673Z" fill="#2198B6"/>
</svg>