<svg width="19" height="11" viewBox="0 0 19 11" fill="none" xmlns="http://www.w3.org/2000/svg">
<path d="M9.49972 0C5.77939 0 2.30214 1.85603 0.212973 4.95413C0.120849 5.09123 0.0567288 5.24533 0.0243282 5.40749C-0.00807231 5.56965 -0.00810973 5.73665 0.0242181 5.89883C0.056546 6.06101 0.120597 6.21513 0.21266 6.35227C0.304723 6.48942 0.42297 6.60686 0.56055 6.69778C0.776952 6.84662 1.01114 6.93072 1.25496 6.93072C1.6596 6.93072 2.0761 6.73351 2.32067 6.37257C2.39774 6.25722 2.4926 6.15675 2.57486 6.04661C3.07152 7.4937 4.00583 8.74891 5.24731 9.63695C6.48879 10.525 7.97547 11.0015 9.49972 11C11.024 11.0016 12.5107 10.5251 13.7522 9.63708C14.9937 8.74903 15.928 7.49376 16.4246 6.04661C16.5061 6.1575 16.6017 6.25722 16.6788 6.37257C17.0678 6.95156 17.8608 7.08923 18.4389 6.69778C18.5765 6.60684 18.6949 6.48938 18.787 6.3522C18.8792 6.21502 18.9433 6.06084 18.9757 5.8986C19.0081 5.73636 19.0081 5.56928 18.9758 5.40703C18.9434 5.24478 18.8793 5.09059 18.7872 4.95338C17.7603 3.42834 16.3766 2.1794 14.7575 1.31597C13.1383 0.452531 11.333 0.000195399 9.49972 0ZM9.49972 2.69772C10.1319 2.69929 10.7378 2.95219 11.1849 3.4011C11.6319 3.85002 11.8838 4.45843 11.8853 5.09329C11.8838 5.72816 11.6319 6.33657 11.1849 6.78548C10.7378 7.2344 10.1319 7.4873 9.49972 7.48887C8.8675 7.4873 8.26162 7.2344 7.81457 6.78548C7.36752 6.33657 7.11568 5.72816 7.11411 5.09329C7.11568 4.45843 7.36752 3.85002 7.81457 3.4011C8.26162 2.95219 8.8675 2.69929 9.49972 2.69772ZM12.4411 3.04675C13.6788 3.49327 14.7808 4.22928 15.7064 5.18632C15.015 7.98302 12.496 10.0705 9.49972 10.0705C6.50344 10.0705 3.98444 7.98302 3.29299 5.18632C4.20776 4.2416 5.32428 3.51789 6.55828 3.06982C6.19147 3.60767 5.97781 4.23587 5.94036 4.88668C5.9029 5.53748 6.04306 6.18621 6.34574 6.76292C6.64841 7.33963 7.1021 7.82243 7.65791 8.15927C8.21371 8.49611 8.85053 8.67421 9.49972 8.67438C9.9681 8.67447 10.4319 8.58192 10.8647 8.402C11.2974 8.22207 11.6906 7.95831 12.0219 7.62576C12.3531 7.29322 12.6158 6.89841 12.7951 6.46389C12.9744 6.02936 13.0666 5.56363 13.0666 5.09329C13.072 4.36285 12.8537 3.6484 12.4411 3.04675Z" fill="#696969"/>
</svg>
