<svg width="65" height="52" viewBox="0 0 65 52" fill="none" xmlns="http://www.w3.org/2000/svg">
<g filter="url(#filter0_d_198_572)">
<rect x="22" y="18" width="25" height="12" rx="6" fill="#FC3F1D"/>
<path d="M29.5405 24.462V26.352H28.4695V24.462H26.7235V23.472H28.4695V21.582H29.5405V23.472H31.2865V24.462H29.5405ZM34.2895 22.392L32.9395 24.57H34.2895V22.392ZM35.6845 25.641V27H34.2895V25.641H31.7335V24.606L34.2535 20.556H35.6845V24.57H36.3415V25.641H35.6845ZM39.0295 27.09C38.6875 27.09 38.3755 27.051 38.0935 26.973C37.8175 26.889 37.5775 26.772 37.3735 26.622C37.1695 26.466 37.0105 26.28 36.8965 26.064C36.7885 25.842 36.7345 25.59 36.7345 25.308C36.7345 24.9 36.8455 24.558 37.0675 24.282C37.2955 24 37.6045 23.793 37.9945 23.661C37.6705 23.541 37.4095 23.355 37.2115 23.103C37.0195 22.851 36.9235 22.536 36.9235 22.158C36.9235 21.888 36.9745 21.648 37.0765 21.438C37.1845 21.228 37.3315 21.051 37.5175 20.907C37.7095 20.763 37.9315 20.655 38.1835 20.583C38.4415 20.505 38.7235 20.466 39.0295 20.466C39.3235 20.466 39.5995 20.502 39.8575 20.574C40.1155 20.646 40.3375 20.754 40.5235 20.898C40.7095 21.036 40.8565 21.21 40.9645 21.42C41.0725 21.624 41.1265 21.864 41.1265 22.14C41.1265 22.524 41.0275 22.845 40.8295 23.103C40.6375 23.355 40.3765 23.541 40.0465 23.661C40.4245 23.787 40.7245 23.988 40.9465 24.264C41.1745 24.54 41.2885 24.879 41.2885 25.281C41.2885 25.563 41.2315 25.818 41.1175 26.046C41.0095 26.268 40.8535 26.457 40.6495 26.613C40.4515 26.769 40.2145 26.889 39.9385 26.973C39.6625 27.051 39.3595 27.09 39.0295 27.09ZM39.0295 23.139C39.2395 23.139 39.4075 23.073 39.5335 22.941C39.6595 22.803 39.7225 22.608 39.7225 22.356C39.7225 22.098 39.6595 21.9 39.5335 21.762C39.4075 21.624 39.2395 21.555 39.0295 21.555C38.8135 21.555 38.6395 21.624 38.5075 21.762C38.3815 21.9 38.3185 22.098 38.3185 22.356C38.3185 22.608 38.3815 22.803 38.5075 22.941C38.6395 23.073 38.8135 23.139 39.0295 23.139ZM39.0295 26.001C39.2695 26.001 39.4615 25.923 39.6055 25.767C39.7555 25.611 39.8305 25.383 39.8305 25.083C39.8305 24.783 39.7555 24.555 39.6055 24.399C39.4615 24.243 39.2695 24.165 39.0295 24.165C38.7715 24.165 38.5675 24.243 38.4175 24.399C38.2675 24.555 38.1925 24.783 38.1925 25.083C38.1925 25.383 38.2675 25.611 38.4175 25.767C38.5675 25.923 38.7715 26.001 39.0295 26.001Z" fill="white"/>
</g>
<defs>
<filter id="filter0_d_198_572" x="0" y="0" width="65" height="52" filterUnits="userSpaceOnUse" color-interpolation-filters="sRGB">
<feFlood flood-opacity="0" result="BackgroundImageFix"/>
<feColorMatrix in="SourceAlpha" type="matrix" values="0 0 0 0 0 0 0 0 0 0 0 0 0 0 0 0 0 0 127 0" result="hardAlpha"/>
<feOffset dx="-2" dy="2"/>
<feGaussianBlur stdDeviation="10"/>
<feComposite in2="hardAlpha" operator="out"/>
<feColorMatrix type="matrix" values="0 0 0 0 0.988235 0 0 0 0 0.247059 0 0 0 0 0.113725 0 0 0 0.5 0"/>
<feBlend mode="normal" in2="BackgroundImageFix" result="effect1_dropShadow_198_572"/>
<feBlend mode="normal" in="SourceGraphic" in2="effect1_dropShadow_198_572" result="shape"/>
</filter>
</defs>
</svg>
