<svg class="nav__item__svg__color nav__item__svg" width="27" height="27" viewBox="0 0 27 27" fill="none" xmlns="http://www.w3.org/2000/svg">
<path d="M10.0713 3.15294C11.7993 1.23441 14.5074 0 17.5503 0C22.7694 0 27.0003 3.63156 27.0003 8.11219C27.0003 10.8014 25.4748 13.185 23.1285 14.6614C23.07 14.6973 23.0106 14.7315 22.9503 14.7642V20.2399C22.9503 20.5091 22.87 20.7722 22.7198 20.9954C22.5696 21.2186 22.3563 21.3919 22.1072 21.493C21.8581 21.594 21.5845 21.6183 21.3215 21.5627C21.0585 21.5072 20.8181 21.3742 20.631 21.1809L19.092 19.5936C20.5351 17.8847 21.3843 15.7863 21.3843 13.519C21.3843 8.02025 16.392 3.52069 10.0713 3.15294Z"/>
<path d="M11.3198 21.4782L6.36931 26.5889C6.18222 26.7822 5.94178 26.9151 5.67879 26.9707C5.4158 27.0263 5.14223 27.002 4.89311 26.9009C4.64399 26.7998 4.43067 26.6266 4.28046 26.4034C4.13026 26.1801 4.05002 25.9171 4.05 25.6479V20.1721C3.98969 20.1395 3.93027 20.1052 3.8718 20.0694C1.52415 18.593 0 16.2093 0 13.5202C0 9.03952 4.2309 5.40796 9.45001 5.40796C14.6691 5.40796 18.9 9.03952 18.9 13.5202C18.9 17.2058 16.0367 20.3182 12.1149 21.3052C11.8521 21.3726 11.5868 21.4303 11.3198 21.4782Z"/>
</svg>