<svg class="nav__item__svg__color" width="23" height="22" viewBox="0 0 23 22" fill="none" xmlns="http://www.w3.org/2000/svg">
<path d="M18.4295 21.9998C17.4272 21.9998 16.0192 21.6531 13.9107 20.5266C11.3469 19.1516 9.36373 17.8821 6.8137 15.4498C4.35507 13.1 3.15862 11.5787 1.4841 8.6646C-0.407625 5.37439 -0.0851483 3.64972 0.275327 2.91262C0.704611 2.03162 1.33827 1.5047 2.1573 0.981699C2.6225 0.690213 3.1148 0.440344 3.62795 0.235261C3.6793 0.214145 3.72706 0.194011 3.76968 0.175841C4.02386 0.0663309 4.40899 -0.0991622 4.89681 0.0776257C5.22237 0.194502 5.51301 0.433657 5.96797 0.863349C6.90099 1.74336 8.17601 3.70325 8.64637 4.66576C8.96217 5.31447 9.17116 5.74269 9.17168 6.22297C9.17168 6.78525 8.8759 7.21887 8.51697 7.68687C8.4497 7.77477 8.38295 7.85875 8.31824 7.94026C7.92747 8.43134 7.84172 8.57326 7.8982 8.82666C8.01271 9.33591 8.86666 10.8519 10.2701 12.191C11.6734 13.5302 13.2129 14.2953 13.7475 14.4043C14.0237 14.4608 14.1752 14.3753 14.7051 13.9884C14.7811 13.9329 14.8592 13.8754 14.9408 13.818C15.4882 13.4285 15.9206 13.1531 16.4947 13.1531H16.4978C16.9974 13.1531 17.4251 13.3603 18.1338 13.7021C19.0581 14.148 21.169 15.3516 22.0949 16.2449C22.5452 16.679 22.7963 16.956 22.919 17.2668C23.1039 17.7348 22.9298 18.1016 22.8163 18.3472C22.7973 18.3879 22.7763 18.4326 22.7542 18.4822C22.5381 18.9721 22.2752 19.4419 21.9691 19.8857C21.4232 20.6665 20.8702 21.2711 19.9469 21.6821C19.4728 21.8965 18.954 22.0052 18.4295 21.9998Z"/>
</svg>