<svg class="nav__item__svg__color" width="24" height="23" viewBox="0 0 24 23" fill="none" xmlns="http://www.w3.org/2000/svg">
<path d="M9.35323 23L8.89552 19.32C8.6476 19.2242 8.41378 19.1092 8.19408 18.975C7.97438 18.8408 7.76002 18.6971 7.551 18.5437L4.14677 19.9812L1 14.5187L3.94652 12.2762C3.92745 12.1421 3.91791 12.0125 3.91791 11.8875V11.1124C3.91791 10.9875 3.92745 10.8579 3.94652 10.7237L1 8.48125L4.14677 3.01875L7.551 4.45625C7.76078 4.30292 7.9801 4.15917 8.20896 4.025C8.43781 3.89083 8.66667 3.77583 8.89552 3.68L9.35323 0H15.6468L16.1045 3.68C16.3524 3.77583 16.5862 3.89083 16.8059 4.025C17.0256 4.15917 17.24 4.30292 17.449 4.45625L20.8532 3.01875L24 8.48125L21.0535 10.7237C21.0726 10.8579 21.0821 10.9875 21.0821 11.1124V11.8875C21.0821 12.0125 21.063 12.1421 21.0249 12.2762L23.9714 14.5187L20.8246 19.9812L17.449 18.5437C17.2392 18.6971 17.0199 18.8408 16.791 18.975C16.5622 19.1092 16.3333 19.2242 16.1045 19.32L15.6468 23H9.35323ZM12.5572 15.525C13.6634 15.525 14.6074 15.1321 15.3893 14.3463C16.1712 13.5604 16.5622 12.6117 16.5622 11.5C16.5622 10.3883 16.1712 9.43958 15.3893 8.65375C14.6074 7.86792 13.6634 7.475 12.5572 7.475C11.432 7.475 10.483 7.86792 9.71025 8.65375C8.93748 9.43958 8.55148 10.3883 8.55224 11.5C8.55224 12.6117 8.93824 13.5604 9.71025 14.3463C10.4823 15.1321 11.4312 15.525 12.5572 15.525Z"/>
</svg>