<svg width="19" height="20" viewBox="0 0 19 20" fill="none" xmlns="http://www.w3.org/2000/svg">
<path d="M2 20C1.45 20 0.979002 19.804 0.587002 19.412C0.195002 19.02 -0.000664969 18.5493 1.69779e-06 18V2C1.69779e-06 1.45 0.196001 0.979002 0.588001 0.587002C0.980001 0.195002 1.45067 -0.000664969 2 1.69779e-06H10L16 6V9.1L8 17.075V20H2ZM10 20V17.875L15.15 12.7L17.3 14.8L12.125 20H10ZM18.025 14.1L15.9 11.975L16.6 11.275C16.8 11.075 17.0417 10.975 17.325 10.975C17.6083 10.975 17.8417 11.075 18.025 11.275L18.725 12C18.9083 12.2 19 12.4377 19 12.713C19 12.9883 18.9083 13.2173 18.725 13.4L18.025 14.1ZM9 7H14L9 2V7Z" fill="#3E9AE3"/>
</svg>
