<svg class="message-field__svg" width="22" height="24" viewBox="0 0 22 24" fill="none" xmlns="http://www.w3.org/2000/svg">
<g clip-path="url(#clip0_214_5)">
<path fill-rule="evenodd" clip-rule="evenodd" d="M16.2958 4.42997C16.5223 4.32596 16.7702 4.29008 17.0138 4.32608C17.2573 4.36208 17.4876 4.46863 17.6806 4.63465C17.8735 4.80067 18.0222 5.02008 18.1111 5.27005C18.2 5.52002 18.2258 5.79141 18.1859 6.05597L16.1069 19.813C15.9053 21.14 14.5706 21.901 13.455 21.24C12.5218 20.687 11.1358 19.835 9.88917 18.946C9.26584 18.501 7.35642 17.076 7.59109 16.062C7.79275 15.195 11.0011 11.937 12.8344 9.99997C13.554 9.23897 13.2258 8.79997 12.3761 9.49997C10.265 11.238 6.87792 13.881 5.75775 14.625C4.76959 15.281 4.25442 15.393 3.63842 15.281C2.51459 15.077 1.47234 14.761 0.621671 14.376C-0.527829 13.856 -0.471913 12.132 0.620754 11.63L16.2958 4.42997Z" fill="#2699D1"/>
</g>
<defs>
<clipPath id="clip0_214_5">
<rect width="22" height="24" fill="white"/>
</clipPath>
</defs>
</svg>