<svg class="change-theme__white" width="22" height="22" viewBox="0 0 22 22" xmlns="http://www.w3.org/2000/svg">
<path d="M11 15C12.0609 15 13.0783 14.5786 13.8284 13.8284C14.5786 13.0783 15 12.0609 15 11C15 9.93913 14.5786 8.92172 13.8284 8.17157C13.0783 7.42143 12.0609 7 11 7C9.93913 7 8.92172 7.42143 8.17157 8.17157C7.42143 8.92172 7 9.93913 7 11C7 12.0609 7.42143 13.0783 8.17157 13.8284C8.92172 14.5786 9.93913 15 11 15Z" stroke="#9AB5BE" stroke-width="2" stroke-linecap="round" stroke-linejoin="round"/>
<path d="M11 7C10.4696 7.53043 10.1716 8.24985 10.1716 9C10.1716 9.75015 10.4696 10.4696 11 11C11.5304 11.5304 12.2499 11.8284 13 11.8284C13.7501 11.8284 14.4696 11.5304 15 11M11 1V3M11 19V21M3.93 3.93L5.34 5.34M16.66 16.66L18.07 18.07M1 11H3M19 11H21M5.34 16.66L3.93 18.07M18.07 3.93L16.66 5.34" stroke="#9AB5BE" stroke-width="2" stroke-linecap="round" stroke-linejoin="round"/>
</svg>