<svg width="200" height="200" viewBox="0 0 200 200" fill="none" xmlns="http://www.w3.org/2000/svg">
<circle cx="100" cy="100" r="99.3956" stroke="#D9D9D9" stroke-width="1.20872"/>
<path d="M99.5 116.996C103.406 116.996 106.727 115.628 109.463 112.893C112.198 110.158 113.565 106.838 113.563 102.934C113.563 99.0274 112.195 95.7065 109.459 92.9711C106.724 90.2357 103.404 88.869 99.5 88.8711C95.5938 88.8711 92.2729 90.2388 89.5375 92.9742C86.8021 95.7097 85.4354 99.0294 85.4375 102.934C85.4375 106.84 86.8052 110.161 89.5406 112.896C92.276 115.632 95.5958 116.998 99.5 116.996ZM96.0625 99.4961L98.0938 95.1211C98.3542 94.5482 98.8229 94.2617 99.5 94.2617C100.177 94.2617 100.646 94.5482 100.906 95.1211L102.938 99.4961L107.313 101.527C107.885 101.788 108.172 102.257 108.172 102.934C108.172 103.611 107.885 104.079 107.313 104.34L102.938 106.371L100.906 110.746C100.646 111.319 100.177 111.605 99.5 111.605C98.8229 111.605 98.3542 111.319 98.0938 110.746L96.0625 106.371L91.6875 104.34C91.1146 104.079 90.8281 103.611 90.8281 102.934C90.8281 102.257 91.1146 101.788 91.6875 101.527L96.0625 99.4961ZM74.5 127.934C72.7813 127.934 71.3094 127.321 70.0844 126.096C68.8594 124.871 68.2479 123.4 68.25 121.684V84.1836C68.25 82.4649 68.8625 80.993 70.0875 79.768C71.3125 78.543 72.7833 77.9315 74.5 77.9336H84.3438L88.25 73.7149C88.8229 73.0378 89.5135 72.5294 90.3219 72.1899C91.1302 71.8503 91.975 71.6815 92.8563 71.6836H106.138C107.023 71.6836 107.87 71.8534 108.678 72.193C109.486 72.5326 110.176 73.0399 110.747 73.7149L114.656 77.9336H124.5C126.219 77.9336 127.691 78.5461 128.916 79.7711C130.141 80.9961 130.752 82.4669 130.75 84.1836V121.684C130.75 123.402 130.138 124.874 128.913 126.099C127.688 127.324 126.217 127.936 124.5 127.934H74.5ZM124.5 121.684V84.1836H74.5V121.684H124.5Z" fill="#D9D9D9"/>
</svg>
