<svg width="24" height="24" viewBox="0 0 24 24" fill="none" xmlns="http://www.w3.org/2000/svg">
<path d="M9.375 12C9.375 12.5192 9.52895 13.0267 9.81739 13.4584C10.1058 13.8901 10.5158 14.2265 10.9955 14.4252C11.4751 14.6239 12.0029 14.6758 12.5121 14.5746C13.0213 14.4733 13.489 14.2233 13.8562 13.8562C14.2233 13.489 14.4733 13.0213 14.5746 12.5121C14.6758 12.0029 14.6239 11.4751 14.4252 10.9955C14.2265 10.5158 13.89 10.1058 13.4584 9.81739C13.0267 9.52896 12.5192 9.375 12 9.375C11.3038 9.375 10.6361 9.65156 10.1438 10.1438C9.65156 10.6361 9.375 11.3038 9.375 12ZM12 7.125C11.4808 7.125 10.9733 6.97105 10.5416 6.68261C10.1099 6.39417 9.77349 5.9842 9.57481 5.50455C9.37613 5.02489 9.32415 4.49709 9.42544 3.98789C9.52672 3.47869 9.77673 3.01096 10.1438 2.64385C10.511 2.27673 10.9787 2.02673 11.4879 1.92544C11.9971 1.82415 12.5249 1.87614 13.0045 2.07482C13.4842 2.2735 13.8942 2.60995 14.1826 3.04163C14.471 3.47331 14.625 3.98083 14.625 4.5C14.625 5.19619 14.3484 5.86387 13.8562 6.35616C13.3639 6.84844 12.6962 7.125 12 7.125ZM12 16.875C12.5192 16.875 13.0267 17.029 13.4584 17.3174C13.89 17.6058 14.2265 18.0158 14.4252 18.4955C14.6239 18.9751 14.6758 19.5029 14.5746 20.0121C14.4733 20.5213 14.2233 20.989 13.8562 21.3562C13.489 21.7233 13.0213 21.9733 12.5121 22.0746C12.0029 22.1758 11.4751 22.1239 10.9955 21.9252C10.5158 21.7265 10.1058 21.3901 9.81739 20.9584C9.52895 20.5267 9.375 20.0192 9.375 19.5C9.375 18.8038 9.65156 18.1361 10.1438 17.6438C10.6361 17.1516 11.3038 16.875 12 16.875Z" fill="#D9D9D9"/>
</svg>
